<mxfile host="Electron" modified="2023-08-22T05:41:00.391Z" agent="Mozilla/5.0 (Windows NT 10.0; Win64; x64) AppleWebKit/537.36 (KHTML, like Gecko) draw.io/21.6.8 Chrome/114.0.5735.289 Electron/25.5.0 Safari/537.36" etag="p0BCO5UIB6sGUHeiQ8A7" version="21.6.8" type="device">
  <diagram name="17.27" id="DCKXRi5QXQsq7xyJSUnh">
    <mxGraphModel dx="880" dy="545" grid="1" gridSize="10" guides="1" tooltips="1" connect="1" arrows="1" fold="1" page="1" pageScale="1" pageWidth="1169" pageHeight="827" math="0" shadow="0">
      <root>
        <mxCell id="0" />
        <mxCell id="1" value="uml" parent="0" />
        <mxCell id="-KHXls-JP240kel35Pwt-1" value="&lt;b&gt;sd &lt;/b&gt;OverviewDiagram &lt;b&gt;lifelines &lt;/b&gt;:User, :ACSystem" style="shape=umlFrame;whiteSpace=wrap;html=1;pointerEvents=0;recursiveResize=0;container=1;collapsible=0;width=280;fontFamily=Helvetica;fontSize=11;fontColor=default;height=30;" vertex="1" parent="1">
          <mxGeometry x="120" width="400" height="660" as="geometry" />
        </mxCell>
        <mxCell id="-KHXls-JP240kel35Pwt-7" style="shape=connector;rounded=0;orthogonalLoop=1;jettySize=auto;html=1;labelBackgroundColor=none;strokeColor=default;fontFamily=Helvetica;fontSize=11;fontColor=default;startArrow=none;startFill=0;endArrow=openThin;endFill=0;startSize=0;endSize=12;exitX=0.5;exitY=1;exitDx=0;exitDy=0;" edge="1" parent="-KHXls-JP240kel35Pwt-1" source="-KHXls-JP240kel35Pwt-5" target="-KHXls-JP240kel35Pwt-2">
          <mxGeometry relative="1" as="geometry" />
        </mxCell>
        <mxCell id="-KHXls-JP240kel35Pwt-24" style="edgeStyle=none;shape=connector;rounded=0;orthogonalLoop=1;jettySize=auto;html=1;entryX=0.56;entryY=0.009;entryDx=0;entryDy=0;entryPerimeter=0;labelBackgroundColor=none;strokeColor=default;fontFamily=Helvetica;fontSize=11;fontColor=default;startArrow=none;startFill=0;endArrow=openThin;endFill=0;startSize=0;endSize=12;" edge="1" parent="-KHXls-JP240kel35Pwt-1" source="-KHXls-JP240kel35Pwt-2" target="-KHXls-JP240kel35Pwt-8">
          <mxGeometry relative="1" as="geometry" />
        </mxCell>
        <mxCell id="-KHXls-JP240kel35Pwt-2" value="ref" style="shape=umlFrame;whiteSpace=wrap;html=1;pointerEvents=0;recursiveResize=0;container=1;collapsible=0;width=30;swimlaneFillColor=default;height=20;" vertex="1" parent="-KHXls-JP240kel35Pwt-1">
          <mxGeometry x="40" y="110" width="240" height="50" as="geometry" />
        </mxCell>
        <mxCell id="-KHXls-JP240kel35Pwt-3" value="EstablishAccess(&quot;Illigal PIN&quot;)" style="text;align=center;html=1;verticalAlign=middle;" vertex="1" parent="-KHXls-JP240kel35Pwt-2">
          <mxGeometry width="180" height="30" relative="1" as="geometry">
            <mxPoint x="30" y="10" as="offset" />
          </mxGeometry>
        </mxCell>
        <mxCell id="-KHXls-JP240kel35Pwt-5" value="" style="ellipse;fillColor=strokeColor;html=1;fontFamily=Helvetica;fontSize=11;fontColor=default;" vertex="1" parent="-KHXls-JP240kel35Pwt-1">
          <mxGeometry x="150" y="50" width="20" height="20" as="geometry" />
        </mxCell>
        <mxCell id="-KHXls-JP240kel35Pwt-8" value="&lt;b&gt;sd&lt;/b&gt;" style="shape=umlFrame;whiteSpace=wrap;html=1;pointerEvents=0;recursiveResize=0;container=1;collapsible=0;width=40;height=20;" vertex="1" parent="-KHXls-JP240kel35Pwt-1">
          <mxGeometry x="20" y="200" width="250" height="110" as="geometry" />
        </mxCell>
        <mxCell id="-KHXls-JP240kel35Pwt-9" value=":User" style="shape=umlLifeline;perimeter=lifelinePerimeter;whiteSpace=wrap;html=1;container=1;dropTarget=0;collapsible=0;recursiveResize=0;outlineConnect=0;portConstraint=eastwest;newEdgeStyle={&quot;edgeStyle&quot;:&quot;elbowEdgeStyle&quot;,&quot;elbow&quot;:&quot;vertical&quot;,&quot;curved&quot;:0,&quot;rounded&quot;:0};size=30;" vertex="1" parent="-KHXls-JP240kel35Pwt-8">
          <mxGeometry x="20" y="30" width="50" height="70" as="geometry" />
        </mxCell>
        <mxCell id="-KHXls-JP240kel35Pwt-10" style="edgeStyle=elbowEdgeStyle;rounded=0;orthogonalLoop=1;jettySize=auto;html=1;elbow=horizontal;curved=0;endArrow=open;verticalAlign=bottom;endFill=0;labelBackgroundColor=none;endSize=12;" edge="1" parent="-KHXls-JP240kel35Pwt-8">
          <mxGeometry relative="1" as="geometry">
            <mxPoint x="189.5" y="80" as="sourcePoint" />
            <mxPoint x="44.5" y="80" as="targetPoint" />
          </mxGeometry>
        </mxCell>
        <mxCell id="-KHXls-JP240kel35Pwt-11" value="CardOut" style="edgeLabel;html=1;align=center;verticalAlign=middle;resizable=0;points=[];" vertex="1" connectable="0" parent="-KHXls-JP240kel35Pwt-10">
          <mxGeometry x="-0.4944" y="3" relative="1" as="geometry">
            <mxPoint x="-32" y="-19" as="offset" />
          </mxGeometry>
        </mxCell>
        <mxCell id="-KHXls-JP240kel35Pwt-14" value=":ACSystem" style="shape=umlLifeline;perimeter=lifelinePerimeter;whiteSpace=wrap;html=1;container=1;dropTarget=0;collapsible=0;recursiveResize=0;outlineConnect=0;portConstraint=eastwest;newEdgeStyle={&quot;edgeStyle&quot;:&quot;elbowEdgeStyle&quot;,&quot;elbow&quot;:&quot;vertical&quot;,&quot;curved&quot;:0,&quot;rounded&quot;:0};size=30;" vertex="1" parent="-KHXls-JP240kel35Pwt-8">
          <mxGeometry x="150" y="30" width="80" height="70" as="geometry" />
        </mxCell>
        <mxCell id="-KHXls-JP240kel35Pwt-27" style="edgeStyle=none;shape=connector;rounded=0;orthogonalLoop=1;jettySize=auto;html=1;labelBackgroundColor=none;strokeColor=default;fontFamily=Helvetica;fontSize=11;fontColor=default;startArrow=none;startFill=0;endArrow=openThin;endFill=0;startSize=0;endSize=12;exitX=0.56;exitY=1;exitDx=0;exitDy=0;exitPerimeter=0;" edge="1" parent="-KHXls-JP240kel35Pwt-1" source="-KHXls-JP240kel35Pwt-8" target="-KHXls-JP240kel35Pwt-26">
          <mxGeometry relative="1" as="geometry" />
        </mxCell>
        <mxCell id="-KHXls-JP240kel35Pwt-33" style="edgeStyle=none;shape=connector;rounded=0;orthogonalLoop=1;jettySize=auto;html=1;entryX=0.16;entryY=0.018;entryDx=0;entryDy=0;entryPerimeter=0;labelBackgroundColor=none;strokeColor=default;fontFamily=Helvetica;fontSize=11;fontColor=default;startArrow=none;startFill=0;endArrow=openThin;endFill=0;startSize=0;endSize=12;" edge="1" parent="-KHXls-JP240kel35Pwt-1" source="-KHXls-JP240kel35Pwt-26" target="-KHXls-JP240kel35Pwt-28">
          <mxGeometry relative="1" as="geometry" />
        </mxCell>
        <mxCell id="-KHXls-JP240kel35Pwt-34" value="[pin OK]" style="edgeLabel;html=1;align=center;verticalAlign=middle;resizable=0;points=[];fontSize=11;fontFamily=Helvetica;fontColor=default;" vertex="1" connectable="0" parent="-KHXls-JP240kel35Pwt-33">
          <mxGeometry x="-0.3546" relative="1" as="geometry">
            <mxPoint as="offset" />
          </mxGeometry>
        </mxCell>
        <mxCell id="-KHXls-JP240kel35Pwt-43" style="edgeStyle=elbowEdgeStyle;shape=connector;rounded=0;orthogonalLoop=1;jettySize=auto;html=1;entryX=0.5;entryY=0;entryDx=0;entryDy=0;labelBackgroundColor=none;strokeColor=default;fontFamily=Helvetica;fontSize=11;fontColor=default;startArrow=none;startFill=0;endArrow=openThin;endFill=0;startSize=0;endSize=12;" edge="1" parent="-KHXls-JP240kel35Pwt-1" source="-KHXls-JP240kel35Pwt-26" target="-KHXls-JP240kel35Pwt-38">
          <mxGeometry relative="1" as="geometry">
            <Array as="points">
              <mxPoint x="43" y="490" />
            </Array>
          </mxGeometry>
        </mxCell>
        <mxCell id="-KHXls-JP240kel35Pwt-26" value="" style="rhombus;fontFamily=Helvetica;fontSize=11;fontColor=default;direction=south;" vertex="1" parent="-KHXls-JP240kel35Pwt-1">
          <mxGeometry x="145" y="360" width="30" height="20" as="geometry" />
        </mxCell>
        <mxCell id="-KHXls-JP240kel35Pwt-37" style="edgeStyle=none;shape=connector;rounded=0;orthogonalLoop=1;jettySize=auto;html=1;labelBackgroundColor=none;strokeColor=default;fontFamily=Helvetica;fontSize=11;fontColor=default;startArrow=none;startFill=0;endArrow=openThin;endFill=0;startSize=0;endSize=12;entryX=0.286;entryY=0;entryDx=0;entryDy=0;entryPerimeter=0;" edge="1" parent="-KHXls-JP240kel35Pwt-1" target="-KHXls-JP240kel35Pwt-35">
          <mxGeometry relative="1" as="geometry">
            <mxPoint x="160.00932203389834" y="550" as="sourcePoint" />
            <mxPoint x="160" y="590" as="targetPoint" />
          </mxGeometry>
        </mxCell>
        <mxCell id="-KHXls-JP240kel35Pwt-28" value="&lt;b&gt;sd&lt;/b&gt;" style="shape=umlFrame;whiteSpace=wrap;html=1;pointerEvents=0;recursiveResize=0;container=1;collapsible=0;width=40;height=20;" vertex="1" parent="-KHXls-JP240kel35Pwt-1">
          <mxGeometry x="120" y="440" width="250" height="110" as="geometry" />
        </mxCell>
        <mxCell id="-KHXls-JP240kel35Pwt-29" value=":User" style="shape=umlLifeline;perimeter=lifelinePerimeter;whiteSpace=wrap;html=1;container=1;dropTarget=0;collapsible=0;recursiveResize=0;outlineConnect=0;portConstraint=eastwest;newEdgeStyle={&quot;edgeStyle&quot;:&quot;elbowEdgeStyle&quot;,&quot;elbow&quot;:&quot;vertical&quot;,&quot;curved&quot;:0,&quot;rounded&quot;:0};size=30;" vertex="1" parent="-KHXls-JP240kel35Pwt-28">
          <mxGeometry x="20" y="30" width="50" height="70" as="geometry" />
        </mxCell>
        <mxCell id="-KHXls-JP240kel35Pwt-30" style="edgeStyle=elbowEdgeStyle;rounded=0;orthogonalLoop=1;jettySize=auto;html=1;elbow=horizontal;curved=0;endArrow=open;verticalAlign=bottom;endFill=0;labelBackgroundColor=none;endSize=12;" edge="1" parent="-KHXls-JP240kel35Pwt-28">
          <mxGeometry relative="1" as="geometry">
            <mxPoint x="189.5" y="80" as="sourcePoint" />
            <mxPoint x="44.5" y="80" as="targetPoint" />
          </mxGeometry>
        </mxCell>
        <mxCell id="-KHXls-JP240kel35Pwt-31" value="Msg(&quot;Please Enter&quot;)" style="edgeLabel;html=1;align=center;verticalAlign=middle;resizable=0;points=[];" vertex="1" connectable="0" parent="-KHXls-JP240kel35Pwt-30">
          <mxGeometry x="-0.4944" y="3" relative="1" as="geometry">
            <mxPoint x="-32" y="-14" as="offset" />
          </mxGeometry>
        </mxCell>
        <mxCell id="-KHXls-JP240kel35Pwt-32" value=":ACSystem" style="shape=umlLifeline;perimeter=lifelinePerimeter;whiteSpace=wrap;html=1;container=1;dropTarget=0;collapsible=0;recursiveResize=0;outlineConnect=0;portConstraint=eastwest;newEdgeStyle={&quot;edgeStyle&quot;:&quot;elbowEdgeStyle&quot;,&quot;elbow&quot;:&quot;vertical&quot;,&quot;curved&quot;:0,&quot;rounded&quot;:0};size=30;" vertex="1" parent="-KHXls-JP240kel35Pwt-28">
          <mxGeometry x="150" y="30" width="80" height="70" as="geometry" />
        </mxCell>
        <mxCell id="-KHXls-JP240kel35Pwt-42" style="edgeStyle=none;shape=connector;rounded=0;orthogonalLoop=1;jettySize=auto;html=1;entryX=1;entryY=0.5;entryDx=0;entryDy=0;labelBackgroundColor=none;strokeColor=default;fontFamily=Helvetica;fontSize=11;fontColor=default;startArrow=none;startFill=0;endArrow=openThin;endFill=0;startSize=0;endSize=12;" edge="1" parent="-KHXls-JP240kel35Pwt-1" source="-KHXls-JP240kel35Pwt-35" target="-KHXls-JP240kel35Pwt-38">
          <mxGeometry relative="1" as="geometry" />
        </mxCell>
        <mxCell id="-KHXls-JP240kel35Pwt-35" value="ref" style="shape=umlFrame;whiteSpace=wrap;html=1;pointerEvents=0;recursiveResize=0;container=1;collapsible=0;width=40;swimlaneFillColor=default;height=20;" vertex="1" parent="-KHXls-JP240kel35Pwt-1">
          <mxGeometry x="120" y="600" width="140" height="40" as="geometry" />
        </mxCell>
        <mxCell id="-KHXls-JP240kel35Pwt-36" value="OpenDoor" style="text;align=center;html=1;" vertex="1" parent="-KHXls-JP240kel35Pwt-35">
          <mxGeometry width="80" height="30" relative="1" as="geometry">
            <mxPoint x="30" y="5" as="offset" />
          </mxGeometry>
        </mxCell>
        <mxCell id="-KHXls-JP240kel35Pwt-38" value="" style="ellipse;html=1;shape=endState;fillColor=strokeColor;fontFamily=Helvetica;fontSize=11;fontColor=default;" vertex="1" parent="-KHXls-JP240kel35Pwt-1">
          <mxGeometry x="30" y="607.5" width="25" height="25" as="geometry" />
        </mxCell>
        <mxCell id="-KHXls-JP240kel35Pwt-45" value="" style="edgeStyle=none;orthogonalLoop=1;jettySize=auto;html=1;rounded=0;labelBackgroundColor=none;strokeColor=default;fontFamily=Helvetica;fontSize=11;fontColor=default;startArrow=none;startFill=0;endArrow=none;endFill=0;startSize=0;endSize=12;shape=connector;exitX=1.004;exitY=1;exitDx=0;exitDy=0;exitPerimeter=0;" edge="1" parent="-KHXls-JP240kel35Pwt-1" source="-KHXls-JP240kel35Pwt-2">
          <mxGeometry width="100" relative="1" as="geometry">
            <mxPoint x="290" y="160" as="sourcePoint" />
            <mxPoint x="310" y="160" as="targetPoint" />
            <Array as="points" />
          </mxGeometry>
        </mxCell>
        <mxCell id="-KHXls-JP240kel35Pwt-46" value="" style="edgeStyle=none;orthogonalLoop=1;jettySize=auto;html=1;rounded=0;labelBackgroundColor=none;strokeColor=default;fontFamily=Helvetica;fontSize=11;fontColor=default;startArrow=none;startFill=0;endArrow=none;endFill=0;startSize=0;endSize=12;shape=connector;exitX=0.996;exitY=0;exitDx=0;exitDy=0;exitPerimeter=0;" edge="1" parent="-KHXls-JP240kel35Pwt-1" source="-KHXls-JP240kel35Pwt-8">
          <mxGeometry width="100" relative="1" as="geometry">
            <mxPoint x="281" y="200" as="sourcePoint" />
            <mxPoint x="310" y="200" as="targetPoint" />
            <Array as="points" />
          </mxGeometry>
        </mxCell>
        <mxCell id="-KHXls-JP240kel35Pwt-47" value="" style="edgeStyle=none;orthogonalLoop=1;jettySize=auto;html=1;rounded=0;labelBackgroundColor=none;strokeColor=default;fontFamily=Helvetica;fontSize=11;fontColor=default;startArrow=none;startFill=0;endArrow=none;endFill=0;startSize=0;endSize=12;shape=connector;exitX=0.996;exitY=0;exitDx=0;exitDy=0;exitPerimeter=0;" edge="1" parent="-KHXls-JP240kel35Pwt-1">
          <mxGeometry width="100" relative="1" as="geometry">
            <mxPoint x="239" y="600" as="sourcePoint" />
            <mxPoint x="290" y="600" as="targetPoint" />
            <Array as="points" />
          </mxGeometry>
        </mxCell>
        <mxCell id="-KHXls-JP240kel35Pwt-48" value="" style="edgeStyle=none;orthogonalLoop=1;jettySize=auto;html=1;rounded=0;labelBackgroundColor=none;strokeColor=default;fontFamily=Helvetica;fontSize=11;fontColor=default;startArrow=none;startFill=0;endArrow=none;endFill=0;startSize=0;endSize=12;shape=connector;exitX=0.996;exitY=0;exitDx=0;exitDy=0;exitPerimeter=0;" edge="1" parent="-KHXls-JP240kel35Pwt-1">
          <mxGeometry width="100" relative="1" as="geometry">
            <mxPoint x="239" y="640" as="sourcePoint" />
            <mxPoint x="290" y="640" as="targetPoint" />
            <Array as="points" />
          </mxGeometry>
        </mxCell>
        <mxCell id="-KHXls-JP240kel35Pwt-25" value="{0..25}" style="endArrow=open;html=1;endSize=10;startArrow=open;startSize=10;startFill=0;align=left;verticalAlign=bottom;endFill=0;rounded=0;labelBackgroundColor=none;strokeColor=default;fontFamily=Helvetica;fontSize=11;fontColor=default;shape=connector;spacingTop=0;" edge="1" parent="1">
          <mxGeometry x="0.4" y="10" relative="1" as="geometry">
            <mxPoint x="420" y="161" as="sourcePoint" />
            <mxPoint x="420" y="201" as="targetPoint" />
            <mxPoint as="offset" />
          </mxGeometry>
        </mxCell>
        <mxCell id="-KHXls-JP240kel35Pwt-44" value="{1..14}" style="endArrow=open;html=1;endSize=10;startArrow=open;startSize=10;startFill=0;align=left;verticalAlign=bottom;endFill=0;rounded=0;labelBackgroundColor=none;strokeColor=default;fontFamily=Helvetica;fontSize=11;fontColor=default;shape=connector;spacingTop=0;" edge="1" parent="1">
          <mxGeometry x="0.4" y="10" relative="1" as="geometry">
            <mxPoint x="400" y="601" as="sourcePoint" />
            <mxPoint x="400" y="641" as="targetPoint" />
            <mxPoint as="offset" />
          </mxGeometry>
        </mxCell>
        <mxCell id="-KHXls-JP240kel35Pwt-49" value="&lt;b&gt;Figure 17.27 Interaction Overview Diagram representing a High Level Interaction diagram&lt;/b&gt;" style="text;html=1;align=left;verticalAlign=middle;resizable=0;points=[];autosize=1;strokeColor=none;fillColor=none;fontSize=11;fontFamily=Helvetica;fontColor=default;" vertex="1" parent="1">
          <mxGeometry y="660" width="490" height="30" as="geometry" />
        </mxCell>
        <mxCell id="-KHXls-JP240kel35Pwt-50" value="annotation" parent="0" />
        <mxCell id="-KHXls-JP240kel35Pwt-51" value="" style="rounded=0;orthogonalLoop=1;jettySize=auto;html=1;endArrow=blockThin;endFill=0;endSize=12;strokeColor=#FF0000;exitX=0.721;exitY=1.006;exitDx=0;exitDy=0;exitPerimeter=0;" edge="1" parent="-KHXls-JP240kel35Pwt-50" source="-KHXls-JP240kel35Pwt-52">
          <mxGeometry relative="1" as="geometry">
            <mxPoint x="153" y="125" as="targetPoint" />
            <mxPoint x="76" y="80" as="sourcePoint" />
          </mxGeometry>
        </mxCell>
        <mxCell id="-KHXls-JP240kel35Pwt-52" value="InteractionUse" style="text;html=1;align=left;verticalAlign=middle;resizable=0;points=[];autosize=1;strokeColor=none;fillColor=none;fontColor=#FF0000;fontStyle=2;fontSize=12;container=0;" vertex="1" parent="-KHXls-JP240kel35Pwt-50">
          <mxGeometry y="50" width="100" height="30" as="geometry" />
        </mxCell>
        <mxCell id="-KHXls-JP240kel35Pwt-53" value="Duration Constraint" style="text;html=1;align=left;verticalAlign=middle;resizable=0;points=[];autosize=1;strokeColor=none;fillColor=none;fontColor=#FF0000;fontStyle=2;fontSize=12;container=0;" vertex="1" parent="-KHXls-JP240kel35Pwt-50">
          <mxGeometry y="150" width="130" height="30" as="geometry" />
        </mxCell>
        <mxCell id="-KHXls-JP240kel35Pwt-54" value="" style="rounded=0;orthogonalLoop=1;jettySize=auto;html=1;endArrow=blockThin;endFill=0;endSize=12;strokeColor=#FF0000;" edge="1" parent="-KHXls-JP240kel35Pwt-50">
          <mxGeometry relative="1" as="geometry">
            <mxPoint x="411" y="190" as="targetPoint" />
            <mxPoint x="112" y="165" as="sourcePoint" />
          </mxGeometry>
        </mxCell>
        <mxCell id="-KHXls-JP240kel35Pwt-55" value="(inline) Interaction" style="text;html=1;align=left;verticalAlign=middle;resizable=0;points=[];autosize=1;strokeColor=none;fillColor=none;fontColor=#FF0000;fontStyle=2;fontSize=12;container=0;" vertex="1" parent="-KHXls-JP240kel35Pwt-50">
          <mxGeometry y="240" width="120" height="30" as="geometry" />
        </mxCell>
        <mxCell id="-KHXls-JP240kel35Pwt-56" value="" style="rounded=0;orthogonalLoop=1;jettySize=auto;html=1;endArrow=blockThin;endFill=0;endSize=12;strokeColor=#FF0000;" edge="1" parent="-KHXls-JP240kel35Pwt-50">
          <mxGeometry relative="1" as="geometry">
            <mxPoint x="136" y="250" as="targetPoint" />
            <mxPoint x="100" y="253" as="sourcePoint" />
          </mxGeometry>
        </mxCell>
        <mxCell id="-KHXls-JP240kel35Pwt-57" value="decision" style="text;html=1;align=left;verticalAlign=middle;resizable=0;points=[];autosize=1;strokeColor=none;fillColor=none;fontColor=#FF0000;fontStyle=2;fontSize=12;container=0;" vertex="1" parent="-KHXls-JP240kel35Pwt-50">
          <mxGeometry y="330" width="70" height="30" as="geometry" />
        </mxCell>
        <mxCell id="-KHXls-JP240kel35Pwt-58" value="" style="rounded=0;orthogonalLoop=1;jettySize=auto;html=1;endArrow=blockThin;endFill=0;endSize=12;strokeColor=#FF0000;" edge="1" parent="-KHXls-JP240kel35Pwt-50">
          <mxGeometry relative="1" as="geometry">
            <mxPoint x="258" y="404" as="targetPoint" />
            <mxPoint x="52" y="350" as="sourcePoint" />
          </mxGeometry>
        </mxCell>
        <mxCell id="-KHXls-JP240kel35Pwt-59" value="interaction constraint" style="text;html=1;align=left;verticalAlign=middle;resizable=0;points=[];autosize=1;strokeColor=none;fillColor=none;fontColor=#FF0000;fontStyle=2;fontSize=12;container=0;" vertex="1" parent="-KHXls-JP240kel35Pwt-50">
          <mxGeometry y="380" width="130" height="30" as="geometry" />
        </mxCell>
        <mxCell id="-KHXls-JP240kel35Pwt-60" value="" style="rounded=0;orthogonalLoop=1;jettySize=auto;html=1;endArrow=blockThin;endFill=0;endSize=12;strokeColor=#FF0000;" edge="1" parent="-KHXls-JP240kel35Pwt-50">
          <mxGeometry relative="1" as="geometry">
            <mxPoint x="229" y="447" as="targetPoint" />
            <mxPoint x="50" y="404" as="sourcePoint" />
          </mxGeometry>
        </mxCell>
      </root>
    </mxGraphModel>
  </diagram>
</mxfile>
